<svg width="16" height="17" viewBox="0 0 16 17" fill="none" xmlns="http://www.w3.org/2000/svg">
<path d="M14.4202 11.7192H5.11549L5.58268 10.7676L13.3452 10.7536C13.6077 10.7536 13.8327 10.5661 13.8796 10.3067L14.9546 4.28951C14.9827 4.1317 14.9405 3.9692 14.8374 3.84576C14.7864 3.78501 14.7228 3.73608 14.6511 3.70235C14.5793 3.66863 14.501 3.65092 14.4217 3.65045L4.54674 3.61764L4.46237 3.22076C4.40924 2.96764 4.18112 2.78326 3.92174 2.78326H1.50768C1.36139 2.78326 1.2211 2.84137 1.11766 2.94481C1.01423 3.04825 0.956116 3.18854 0.956116 3.33483C0.956116 3.48111 1.01423 3.6214 1.11766 3.72484C1.2211 3.82828 1.36139 3.88639 1.50768 3.88639H3.47487L3.84362 5.63951L4.75143 10.0348L3.58268 11.9426C3.52198 12.0246 3.48543 12.1218 3.47714 12.2234C3.46886 12.3251 3.48918 12.427 3.5358 12.5176C3.62955 12.7036 3.81862 12.8208 4.02799 12.8208H5.00924C4.80005 13.0986 4.68706 13.437 4.68737 13.7848C4.68737 14.6692 5.40612 15.388 6.29049 15.388C7.17487 15.388 7.89362 14.6692 7.89362 13.7848C7.89362 13.4364 7.77799 13.0973 7.57174 12.8208H10.0889C9.87974 13.0986 9.76675 13.437 9.76705 13.7848C9.76705 14.6692 10.4858 15.388 11.3702 15.388C12.2546 15.388 12.9733 14.6692 12.9733 13.7848C12.9733 13.4364 12.8577 13.0973 12.6514 12.8208H14.4217C14.7249 12.8208 14.9733 12.5739 14.9733 12.2692C14.9724 12.1231 14.9137 11.9832 14.8101 11.8802C14.7065 11.7772 14.5663 11.7193 14.4202 11.7192V11.7192ZM4.77643 4.70514L13.7733 4.73483L12.8921 9.6692L5.82487 9.6817L4.77643 4.70514ZM6.29049 14.2786C6.01862 14.2786 5.79674 14.0567 5.79674 13.7848C5.79674 13.513 6.01862 13.2911 6.29049 13.2911C6.56237 13.2911 6.78424 13.513 6.78424 13.7848C6.78424 13.9158 6.73222 14.0414 6.63962 14.134C6.54703 14.2266 6.42144 14.2786 6.29049 14.2786V14.2786ZM11.3702 14.2786C11.0983 14.2786 10.8764 14.0567 10.8764 13.7848C10.8764 13.513 11.0983 13.2911 11.3702 13.2911C11.6421 13.2911 11.8639 13.513 11.8639 13.7848C11.8639 13.9158 11.8119 14.0414 11.7193 14.134C11.6267 14.2266 11.5011 14.2786 11.3702 14.2786V14.2786Z" fill="white"/>
</svg>
